<?xml version="1.0" encoding="UTF-8" standalone="no"?>
<!DOCTYPE svg PUBLIC "-//W3C//DTD SVG 1.1//EN" "http://www.w3.org/Graphics/SVG/1.1/DTD/svg11.dtd">
<svg width="100%" height="100%" viewBox="0 0 800 600" version="1.1" xmlns="http://www.w3.org/2000/svg" xmlns:xlink="http://www.w3.org/1999/xlink" xml:space="preserve" xmlns:serif="http://www.serif.com/" style="fill-rule:evenodd;clip-rule:evenodd;stroke-linejoin:round;stroke-miterlimit:1.5;">
    <g transform="matrix(1,0,0,1,-850,0)">
        <rect id="deadlift" x="850" y="0" width="800" height="600" style="fill:none;"/>
        <g id="deadlift1" serif:id="deadlift">
            <g id="g1">
<animate attributeName="opacity" values="1;1;0;0;0" repeatCount="indefinite" dur="10s" />
                <g transform="matrix(0.526794,0.462804,-0.466223,0.522931,1161.67,-163.528)">
                    <ellipse cx="403.598" cy="256.47" rx="56.552" ry="63.562" style="fill:rgb(230,169,26);"/>
                </g>
                <path d="M1056.8,368.084L1056.8,506.542" style="fill:none;stroke:black;stroke-width:12px;"/>
                <path d="M1213.41,212.622L1213.41,368.084" style="fill:none;stroke:black;stroke-width:12px;"/>
                <g transform="matrix(0.703474,0,0,0.698315,357.644,42.7594)">
                    <path d="M1216.49,243.246L993.866,465.87" style="fill:none;stroke:black;stroke-width:17.12px;stroke-linecap:round;"/>
                </g>
                <g transform="matrix(1,0,0,1,131.862,88.1253)">
                    <circle cx="1083.45" cy="370.405" r="61.149" style="fill:rgb(51,51,51);"/>
                    <g transform="matrix(0.379101,0,0,0.379101,672.712,229.984)">
                        <circle cx="1083.45" cy="370.405" r="61.149" style="fill:rgb(191,191,191);"/>
                    </g>
                    <g transform="matrix(0.302152,0,0,0.302152,756.081,258.486)">
                        <circle cx="1083.45" cy="370.405" r="61.149" style="fill:rgb(51,51,51);"/>
                    </g>
                    <g transform="matrix(0.245115,0,0,0.245115,817.878,279.613)">
                        <circle cx="1083.45" cy="370.405" r="61.149" style="fill:rgb(191,191,191);"/>
                    </g>
                    <g transform="matrix(0.120037,0,0,0.120037,953.394,325.943)">
                        <circle cx="1083.45" cy="370.405" r="61.149" style="fill:rgb(26,26,26);"/>
                    </g>
                </g>
            </g>
            <g id="g2">
<animate attributeName="opacity" values="0;0;1;0;0" repeatCount="indefinite" dur="10s" />
                <g transform="matrix(0.611655,0.342896,-0.347045,0.608589,1018.91,-175.134)">
                    <ellipse cx="403.598" cy="256.47" rx="56.552" ry="63.562" style="fill:rgb(230,169,26);"/>
                </g>
                <path d="M1056.8,368.084L1056.8,506.542" style="fill:none;stroke:black;stroke-width:12px;"/>
                <g transform="matrix(1,0,0,1,-68.7816,-32.109)">
                    <path d="M1213.41,212.622L1213.41,368.084" style="fill:none;stroke:black;stroke-width:12px;"/>
                </g>
                <g transform="matrix(0.703474,0,0,0.698315,357.644,42.7594)">
                    <path d="M1118.72,197.265L993.866,465.87" style="fill:none;stroke:black;stroke-width:17.12px;stroke-linecap:round;"/>
                </g>
                <g transform="matrix(1,0,0,1,61.186,46.7136)">
                    <circle cx="1083.45" cy="370.405" r="61.149" style="fill:rgb(51,51,51);"/>
                    <g transform="matrix(0.379101,0,0,0.379101,672.712,229.984)">
                        <circle cx="1083.45" cy="370.405" r="61.149" style="fill:rgb(191,191,191);"/>
                    </g>
                    <g transform="matrix(0.302152,0,0,0.302152,756.081,258.486)">
                        <circle cx="1083.45" cy="370.405" r="61.149" style="fill:rgb(51,51,51);"/>
                    </g>
                    <g transform="matrix(0.245115,0,0,0.245115,817.878,279.613)">
                        <circle cx="1083.45" cy="370.405" r="61.149" style="fill:rgb(191,191,191);"/>
                    </g>
                    <g transform="matrix(0.120037,0,0,0.120037,953.394,325.943)">
                        <circle cx="1083.45" cy="370.405" r="61.149" style="fill:rgb(26,26,26);"/>
                    </g>
                </g>
            </g>
            <g id="g3">
<animate attributeName="opacity" values="0;0;0;1;1" repeatCount="indefinite" dur="10s" />
                <g transform="matrix(0.701213,0,-0.00511859,0.700567,775.109,-59.0772)">
                    <ellipse cx="403.598" cy="256.47" rx="56.552" ry="63.562" style="fill:rgb(230,169,26);"/>
                </g>
                <path d="M1056.8,368.084L1056.8,506.542" style="fill:none;stroke:black;stroke-width:12px;"/>
                <g transform="matrix(1,0,0,1,-118.418,-32.109)">
                    <path d="M1166.16,212.622L1182.97,268.985L1213.41,368.084" style="fill:none;stroke:black;stroke-width:12px;"/>
                </g>
                <g transform="matrix(0.703474,0,0,0.698315,357.644,42.7594)">
                    <path d="M980.982,197.265L993.866,465.87" style="fill:none;stroke:black;stroke-width:17.12px;stroke-linecap:round;"/>
                </g>
                <g transform="matrix(1,0,0,1,34.5057,20.0334)">
                    <circle cx="1083.45" cy="370.405" r="61.149" style="fill:rgb(51,51,51);"/>
                    <g transform="matrix(0.379101,0,0,0.379101,672.712,229.984)">
                        <circle cx="1083.45" cy="370.405" r="61.149" style="fill:rgb(191,191,191);"/>
                    </g>
                    <g transform="matrix(0.302152,0,0,0.302152,756.081,258.486)">
                        <circle cx="1083.45" cy="370.405" r="61.149" style="fill:rgb(51,51,51);"/>
                    </g>
                    <g transform="matrix(0.245115,0,0,0.245115,817.878,279.613)">
                        <circle cx="1083.45" cy="370.405" r="61.149" style="fill:rgb(191,191,191);"/>
                    </g>
                    <g transform="matrix(0.120037,0,0,0.120037,953.394,325.943)">
                        <circle cx="1083.45" cy="370.405" r="61.149" style="fill:rgb(26,26,26);"/>
                    </g>
                </g>
            </g>
        </g>
    </g>
</svg>
