<?xml version="1.0" encoding="UTF-8" standalone="no"?>
<!DOCTYPE svg PUBLIC "-//W3C//DTD SVG 1.1//EN" "http://www.w3.org/Graphics/SVG/1.1/DTD/svg11.dtd">
<svg width="100%" height="100%" viewBox="0 0 800 600" version="1.1" xmlns="http://www.w3.org/2000/svg" xmlns:xlink="http://www.w3.org/1999/xlink" xml:space="preserve" xmlns:serif="http://www.serif.com/" style="fill-rule:evenodd;clip-rule:evenodd;stroke-linecap:round;stroke-linejoin:round;stroke-miterlimit:1.5;">
    <g id="g1">
<animate attributeName="opacity" values="1;1;0;0;0;0;1;1" repeatCount="indefinite" dur="10s" />
        <g transform="matrix(1,0,0,1,-3.5977,107.092)">
            <ellipse cx="403.598" cy="256.47" rx="56.552" ry="63.562" style="fill:rgb(230,169,26);"/>
        </g>
        <path d="M502.234,363.562L533.531,295.194L600.869,148.099C600.869,148.099 608.525,130.708 623.329,126.955C638.134,123.203 647.28,132.299 649.489,137.438" style="fill:none;stroke:rgb(179,112,77);stroke-width:4px;"/>
        <g transform="matrix(-1,0,0,1,808.688,0)">
            <path d="M502.234,363.562L533.531,295.194L600.869,148.099C600.869,148.099 608.525,130.708 623.329,126.955C638.134,123.203 647.28,132.299 649.489,137.438" style="fill:none;stroke:rgb(179,112,77);stroke-width:4px;"/>
        </g>
        <path d="M63.686,137.699L140.523,137.699" style="fill:none;stroke:black;stroke-width:9px;"/>
        <g transform="matrix(1,0,0,1,620.367,0)">
            <path d="M63.686,137.699L140.523,137.699" style="fill:none;stroke:black;stroke-width:9px;"/>
        </g>
        <g transform="matrix(3.73664,0,0,3.73664,18.4714,-376.833)">
            <path d="M63.686,137.699L140.523,137.699" style="fill:none;stroke:black;stroke-width:2.41px;"/>
        </g>
    </g>
    <g id="g2">
<animate attributeName="opacity" values="0;0;1;0;0;1;0;0" repeatCount="indefinite" dur="10s" />
        <g transform="matrix(1,0,0,1,-3.5977,67.7217)">
            <ellipse cx="403.598" cy="256.47" rx="56.552" ry="63.562" style="fill:rgb(230,169,26);"/>
        </g>
        <g transform="matrix(-1,0,0,1,808.688,0)">
            <path d="M527.094,309.256L533.531,295.194L600.869,148.099C600.869,148.099 608.525,130.708 623.329,126.955C638.134,123.203 647.28,132.299 649.489,137.438C651.698,142.576 652.493,151.646 642.557,158.745" style="fill:none;stroke:rgb(179,112,77);stroke-width:4px;"/>
        </g>
        <path d="M527.094,309.256L533.531,295.194L600.869,148.099C600.869,148.099 608.525,130.708 623.329,126.955C638.134,123.203 647.28,132.299 649.489,137.438C651.698,142.576 652.493,151.646 642.557,158.745" style="fill:none;stroke:rgb(179,112,77);stroke-width:4px;"/>
        <path d="M63.686,137.699L140.523,137.699" style="fill:none;stroke:black;stroke-width:9px;"/>
        <g transform="matrix(1,0,0,1,620.367,0)">
            <path d="M63.686,137.699L140.523,137.699" style="fill:none;stroke:black;stroke-width:9px;"/>
        </g>
        <g transform="matrix(3.73664,0,0,3.73664,18.4714,-376.833)">
            <path d="M63.686,137.699L140.523,137.699" style="fill:none;stroke:black;stroke-width:2.41px;"/>
        </g>
    </g>
    <g id="g3">
<animate attributeName="opacity" values="0;0;0;1;1;0;0;0" repeatCount="indefinite" dur="10s" />
        <g transform="matrix(1,0,0,1,-3.5977,-10.776)">
            <ellipse cx="403.598" cy="256.47" rx="56.552" ry="63.562" style="fill:rgb(230,169,26);"/>
        </g>
        <path d="M545.461,269.133L600.869,148.099C600.869,148.099 608.525,130.708 623.329,126.955C638.134,123.203 647.28,132.299 649.489,137.438C651.698,142.576 652.493,151.646 642.557,158.745C632.621,165.845 622.465,157.775 624.84,152.994" style="fill:none;stroke:rgb(179,112,77);stroke-width:4px;"/>
        <g transform="matrix(-1,0,0,1,808.688,0)">
            <path d="M545.461,269.133L600.869,148.099C600.869,148.099 608.525,130.708 623.329,126.955C638.134,123.203 647.28,132.299 649.489,137.438C651.698,142.576 652.493,151.646 642.557,158.745C632.621,165.845 622.465,157.775 624.84,152.994" style="fill:none;stroke:rgb(179,112,77);stroke-width:4px;"/>
        </g>
        <path d="M63.686,137.699L140.523,137.699" style="fill:none;stroke:black;stroke-width:9px;"/>
        <g transform="matrix(1,0,0,1,620.367,0)">
            <path d="M63.686,137.699L140.523,137.699" style="fill:none;stroke:black;stroke-width:9px;"/>
        </g>
        <g transform="matrix(3.73664,0,0,3.73664,18.4714,-376.833)">
            <path d="M63.686,137.699L140.523,137.699" style="fill:none;stroke:black;stroke-width:2.41px;"/>
        </g>
    </g>
</svg>
