<?xml version="1.0" encoding="UTF-8" standalone="no"?>
<!DOCTYPE svg PUBLIC "-//W3C//DTD SVG 1.1//EN" "http://www.w3.org/Graphics/SVG/1.1/DTD/svg11.dtd">
<svg width="100%" height="100%" viewBox="0 0 800 600" version="1.1" xmlns="http://www.w3.org/2000/svg" xmlns:xlink="http://www.w3.org/1999/xlink" xml:space="preserve" xmlns:serif="http://www.serif.com/" style="fill-rule:evenodd;clip-rule:evenodd;stroke-linecap:round;stroke-linejoin:round;stroke-miterlimit:1.5;">
    <g transform="matrix(1,0,0,1,-1713.16,-726.526)">
        <g id="squat" transform="matrix(1,0,0,1,-836.839,726.526)">
            <rect x="2550" y="0" width="800" height="600" style="fill:none;"/>
            <g id="g1">
<animate attributeName="opacity" values="1;1;1;1;0;0;0;0;0;0;1;1;1" repeatCount="indefinite" dur="10s" />
                <g transform="matrix(0.701213,0,-0.00511859,0.700567,2668.3,33.4399)">
                    <ellipse cx="403.598" cy="256.47" rx="56.552" ry="63.562" style="fill:rgb(230,169,26);"/>
                </g>
                <g transform="matrix(1,0,0,1,836.839,-726.526)">
                    <path d="M2073.5,996.781L1996.09,1130.89L2113.16,1131.17L2073.5,1234.83" style="fill:none;stroke:black;stroke-width:12px;"/>
                </g>
                <g transform="matrix(1,0,0,1,757.526,-733.161)">
                    <ellipse cx="2167.26" cy="1241.46" rx="14.441" ry="6.636" style="stroke:black;stroke-width:12px;"/>
                </g>
            </g>
            <g id="g2">
<animate attributeName="opacity" values="0;0;0;0;1;0;0;0;0;1;0;0;0" repeatCount="indefinite" dur="10s" />
                <g transform="matrix(0.701213,0,-0.00511859,0.700567,2629.6,-30.5852)">
                    <ellipse cx="403.598" cy="256.47" rx="56.552" ry="63.562" style="fill:rgb(230,169,26);"/>
                </g>
                <g transform="matrix(1,0,0,1,836.839,-726.526)">
                    <path d="M2074.46,946.212L2022.67,1068.29L2074.46,1126.57L2073.5,1234.83" style="fill:none;stroke:black;stroke-width:12px;"/>
                </g>
                <g transform="matrix(1,0,0,1,757.526,-733.161)">
                    <ellipse cx="2167.26" cy="1241.46" rx="14.441" ry="6.636" style="stroke:black;stroke-width:12px;"/>
                </g>
            </g>
            <g id="g3">
<animate attributeName="opacity" values="0;0;0;0;0;1;1;1;1;0;0;0" repeatCount="indefinite" dur="10s" />
                <g transform="matrix(0.701213,0,-0.00511859,0.700567,2629.6,-63.3161)">
                    <ellipse cx="403.598" cy="256.47" rx="56.552" ry="63.562" style="fill:rgb(230,169,26);"/>
                </g>
                <g transform="matrix(1,0,0,1,836.839,-726.526)">
                    <path d="M2074.46,919.163L2074.46,1126.98L2073.5,1234.83" style="fill:none;stroke:black;stroke-width:12px;"/>
                </g>
                <g transform="matrix(1,0,0,1,757.526,-733.161)">
                    <ellipse cx="2167.26" cy="1241.46" rx="14.441" ry="6.636" style="stroke:black;stroke-width:12px;"/>
                </g>
            </g>
        </g>
    </g>
</svg>
