<?xml version="1.0" encoding="UTF-8" standalone="no"?>
<!DOCTYPE svg PUBLIC "-//W3C//DTD SVG 1.1//EN" "http://www.w3.org/Graphics/SVG/1.1/DTD/svg11.dtd">
<svg width="100%" height="100%" viewBox="0 0 800 600" version="1.1" xmlns="http://www.w3.org/2000/svg" xmlns:xlink="http://www.w3.org/1999/xlink" xml:space="preserve" xmlns:serif="http://www.serif.com/" style="fill-rule:evenodd;clip-rule:evenodd;stroke-linecap:round;stroke-linejoin:round;stroke-miterlimit:1.5;">
    <g transform="matrix(1,0,0,1,-872.155,-725.683)">
        <g id="warm-up" transform="matrix(1,0,0,1,-1677.84,725.683)">
            <rect x="2550" y="0" width="800" height="600" style="fill:none;"/>
            <g id="g1">
<animate attributeName="opacity" values="1;0;0;0;1" repeatCount="indefinite" dur="10s" />
                <g transform="matrix(1.50064,0,0,1.44091,-1364.09,-49.8688)">
                    <g transform="matrix(1,0,0,1,1687.57,-691.395)">
                        <path d="M1122.85,907.906C1122.85,907.906 1190.35,866.558 1190.03,836.365C1189.7,806.171 1215.93,856.716 1223.91,869.035C1231.88,881.354 1257.38,959.4 1257.38,959.4C1257.38,959.4 1276.32,959.59 1239.85,990.786C1191.17,1032.42 1145.14,1007.94 1129.65,975.057C1114.84,943.62 1122.85,907.906 1122.85,907.906Z" style="fill:white;stroke:rgb(242,94,13);stroke-width:4px;"/>
                    </g>
                    <g transform="matrix(0.690583,0,0,0.669981,2056.24,-387.833)">
                        <path d="M1122.85,907.906C1122.85,907.906 1190.35,866.558 1190.03,836.365C1189.7,806.171 1215.93,856.716 1223.91,869.035C1231.88,881.354 1257.38,959.4 1257.38,959.4C1257.38,959.4 1276.32,959.59 1239.85,990.786C1191.17,1032.42 1145.14,1007.94 1129.65,975.057C1114.84,943.62 1122.85,907.906 1122.85,907.906Z" style="fill:rgb(91,112,253);"/>
                    </g>
                </g>
                <g transform="matrix(1.50064,0,0,1.44091,1168.34,-1046.11)">
                    <path d="M1124.33,812.797C1130.06,791.718 1061.19,857.551 1056.96,920.274C1052.73,982.996 1056.36,980.555 1061.25,986.699C1064.07,990.246 1079.19,996.913 1099.13,999.553C1113.74,1001.49 1174.16,1015.41 1191.49,1014.64C1218.91,1013.44 1222.31,956.718 1208.85,939.748C1195.4,922.778 1114.5,848.963 1124.33,812.797Z" style="fill:rgb(242,94,13);"/>
                    <clipPath id="_clip1">
                        <path d="M1124.33,812.797C1130.06,791.718 1061.19,857.551 1056.96,920.274C1052.73,982.996 1056.36,980.555 1061.25,986.699C1064.07,990.246 1079.19,996.913 1099.13,999.553C1113.74,1001.49 1174.16,1015.41 1191.49,1014.64C1218.91,1013.44 1222.31,956.718 1208.85,939.748C1195.4,922.778 1114.5,848.963 1124.33,812.797Z"/>
                    </clipPath>
                    <g clip-path="url(#_clip1)">
                        <g transform="matrix(1,0,0,1,-9.72719,-34.2881)">
                            <path d="M1033.9,975.366C1047.66,958.429 1078.25,959.266 1102.88,982.936C1122.23,1001.52 1157.86,1032.38 1137.34,1063.83C1116.83,1095.28 1020.34,1084.56 1020.34,1084.56C1020.34,1084.56 1020.14,992.303 1033.9,975.366Z" style="fill:rgb(172,66,9);"/>
                        </g>
                        <g transform="matrix(1,0,0,1,-9.72719,-34.2881)">
                            <path d="M1136,843.073C1136.52,842.47 1134.37,843.393 1133.74,843.892C1131.71,845.503 1129.75,847.25 1128.17,849.3C1126.63,851.302 1125.37,853.555 1124.48,855.919C1119.93,867.948 1121.94,881.159 1124.26,893.374C1128.12,913.775 1137.41,935.169 1156.07,946.205C1165.55,951.811 1175.79,956.03 1185.65,960.927C1194.14,965.142 1202.65,969.321 1211.15,973.54C1211.93,973.929 1215.65,976.449 1216.89,974.828C1218.37,972.88 1204.26,958.7 1199.34,953.854C1175.06,929.924 1155.25,901.279 1142.14,869.773C1139.62,863.734 1137.81,857.424 1135.86,851.18C1135.25,849.215 1134.32,844.999 1136,843.073Z" style="fill:rgb(229,242,13);"/>
                        </g>
                    </g>
                </g>
                <g transform="matrix(1.50064,0,0,1.44091,1168.34,-1046.11)">
                    <path d="M1236.2,808.785C1221.43,787.259 1249.11,851.563 1227.62,896.526C1202.84,948.374 1200.68,964.702 1177.9,994.045C1168.39,1006.3 1167.15,1010.93 1204.95,1025.68C1234.78,1037.33 1312.77,1074.65 1316.24,1025.68C1319.71,976.719 1250.97,830.311 1236.2,808.785Z" style="fill:rgb(226,87,12);"/>
                    <clipPath id="_clip2">
                        <path d="M1236.2,808.785C1221.43,787.259 1249.11,851.563 1227.62,896.526C1202.84,948.374 1200.68,964.702 1177.9,994.045C1168.39,1006.3 1167.15,1010.93 1204.95,1025.68C1234.78,1037.33 1312.77,1074.65 1316.24,1025.68C1319.71,976.719 1250.97,830.311 1236.2,808.785Z"/>
                    </clipPath>
                    <g clip-path="url(#_clip2)">
                        <g transform="matrix(1,0,0,1,-9.72719,-34.2881)">
                            <path d="M1254.05,821.796C1254.05,821.796 1226.04,816.631 1254.05,861.349C1282.06,906.066 1272.15,961.674 1272.15,961.674C1272.15,961.674 1254.48,1104.75 1182,1072.54C1109.53,1040.33 1072.74,1066.26 1072.74,1066.26C1072.74,1066.26 951.036,1288.38 1217,1187.88C1482.96,1087.39 1477.69,987.337 1477.69,987.337L1254.05,821.796" style="fill:rgb(172,66,9);"/>
                        </g>
                    </g>
                </g>
                <g transform="matrix(1,0,0,1,1751.07,-655.436)">
                    <path d="M970.77,787.071L972.931,793.813L977.096,791.73L976.428,796.389L983.423,796.389L977.764,800.556L981.006,803.927L976.428,804.723L978.59,811.466L972.931,807.299L970.77,811.466L968.608,807.299L962.949,811.466L965.111,804.723L960.533,803.927L963.775,800.556L958.116,796.389L965.111,796.389L964.443,791.73L968.608,793.813L970.77,787.071Z" style="fill:rgb(226,87,12);"/>
                </g>
                <g transform="matrix(0.556636,0,0,0.602635,2610.41,-276.301)">
                    <path d="M970.77,787.071L972.931,793.813L977.096,791.73L976.428,796.389L983.423,796.389L977.764,800.556L981.006,803.927L976.428,804.723L978.59,811.466L972.931,807.299L970.77,811.466L968.608,807.299L962.949,811.466L965.111,804.723L960.533,803.927L963.775,800.556L958.116,796.389L965.111,796.389L964.443,791.73L968.608,793.813L970.77,787.071Z" style="fill:rgb(226,87,12);"/>
                </g>
                <g transform="matrix(0.556636,0,0,0.602635,2454.44,-326.718)">
                    <path d="M970.77,787.071L972.931,793.813L977.096,791.73L976.428,796.389L983.423,796.389L977.764,800.556L981.006,803.927L976.428,804.723L978.59,811.466L972.931,807.299L970.77,811.466L968.608,807.299L962.949,811.466L965.111,804.723L960.533,803.927L963.775,800.556L958.116,796.389L965.111,796.389L964.443,791.73L968.608,793.813L970.77,787.071Z" style="fill:rgb(226,87,12);"/>
                </g>
                <g transform="matrix(0.556636,0,0,0.602635,2567.65,-162.796)">
                    <path d="M970.77,787.071L972.931,793.813L977.096,791.73L976.428,796.389L983.423,796.389L977.764,800.556L981.006,803.927L976.428,804.723L978.59,811.466L972.931,807.299L970.77,811.466L968.608,807.299L962.949,811.466L965.111,804.723L960.533,803.927L963.775,800.556L958.116,796.389L965.111,796.389L964.443,791.73L968.608,793.813L970.77,787.071Z" style="fill:rgb(229,242,13);"/>
                </g>
                <g transform="matrix(0.556636,0,0,0.602635,2268.53,-194.432)">
                    <path d="M970.77,787.071L972.931,793.813L977.096,791.73L976.428,796.389L983.423,796.389L977.764,800.556L981.006,803.927L976.428,804.723L978.59,811.466L972.931,807.299L970.77,811.466L968.608,807.299L962.949,811.466L965.111,804.723L960.533,803.927L963.775,800.556L958.116,796.389L965.111,796.389L964.443,791.73L968.608,793.813L970.77,787.071Z" style="fill:rgb(229,242,13);"/>
                </g>
            </g>
            <g id="g2">
<animate attributeName="opacity" values="0;1;0;1;0" repeatCount="indefinite" dur="10s" />
                <g transform="matrix(1.50064,0,0,1.44091,-1364.09,-49.8688)">
                    <g transform="matrix(1,0,0,1,1687.57,-691.395)">
                        <path d="M1122.85,907.906C1122.85,907.906 1190.35,866.558 1190.03,836.365C1189.7,806.171 1215.93,856.716 1223.91,869.035C1231.88,881.354 1257.38,959.4 1257.38,959.4C1257.38,959.4 1276.32,959.59 1239.85,990.786C1191.17,1032.42 1145.14,1007.94 1129.65,975.057C1114.84,943.62 1122.85,907.906 1122.85,907.906Z" style="fill:white;stroke:rgb(242,94,13);stroke-width:4px;"/>
                    </g>
                    <g transform="matrix(0.690583,0,0,0.669981,2056.24,-387.833)">
                        <path d="M1122.85,907.906C1122.85,907.906 1190.35,866.558 1190.03,836.365C1189.7,806.171 1215.93,856.716 1223.91,869.035C1231.88,881.354 1257.38,959.4 1257.38,959.4C1257.38,959.4 1276.32,959.59 1239.85,990.786C1191.17,1032.42 1145.14,1007.94 1129.65,975.057C1114.84,943.62 1122.85,907.906 1122.85,907.906Z" style="fill:rgb(91,112,253);"/>
                    </g>
                </g>
                <g transform="matrix(1.50064,0,0,1.44091,1168.34,-1046.11)">
                    <path d="M1118.71,816.721C1124.44,795.641 1061.19,857.551 1056.96,920.274C1052.73,982.996 1056.36,980.555 1061.25,986.699C1064.07,990.246 1079.19,996.913 1099.13,999.553C1113.74,1001.49 1174.16,1015.41 1191.49,1014.64C1218.91,1013.44 1222.31,956.718 1208.85,939.748C1195.4,922.778 1108.87,852.886 1118.71,816.721Z" style="fill:rgb(242,94,13);"/>
                    <clipPath id="_clip3">
                        <path d="M1118.71,816.721C1124.44,795.641 1061.19,857.551 1056.96,920.274C1052.73,982.996 1056.36,980.555 1061.25,986.699C1064.07,990.246 1079.19,996.913 1099.13,999.553C1113.74,1001.49 1174.16,1015.41 1191.49,1014.64C1218.91,1013.44 1222.31,956.718 1208.85,939.748C1195.4,922.778 1108.87,852.886 1118.71,816.721Z"/>
                    </clipPath>
                    <g clip-path="url(#_clip3)">
                        <g transform="matrix(1,0,0,1,-9.72719,-34.2881)">
                            <path d="M1033.9,975.366C1047.66,958.429 1078.25,959.266 1102.88,982.936C1122.23,1001.52 1157.86,1032.38 1137.34,1063.83C1116.83,1095.28 1020.34,1084.56 1020.34,1084.56C1020.34,1084.56 1020.14,992.303 1033.9,975.366Z" style="fill:rgb(172,66,9);"/>
                        </g>
                        <g transform="matrix(1,0,0,1,-9.72719,-34.2881)">
                            <path d="M1136,843.073C1136.52,842.47 1134.37,843.393 1133.74,843.892C1131.71,845.503 1129.75,847.25 1128.17,849.3C1126.63,851.302 1125.37,853.555 1124.48,855.919C1119.93,867.948 1121.94,881.159 1124.26,893.374C1128.12,913.775 1137.41,935.169 1156.07,946.205C1165.55,951.811 1175.79,956.03 1185.65,960.927C1194.14,965.142 1202.65,969.321 1211.15,973.54C1211.93,973.929 1215.65,976.449 1216.89,974.828C1218.37,972.88 1204.26,958.7 1199.34,953.854C1175.06,929.924 1155.25,901.279 1142.14,869.773C1139.62,863.734 1137.81,857.424 1135.86,851.18C1135.25,849.215 1134.32,844.999 1136,843.073Z" style="fill:rgb(229,242,13);"/>
                        </g>
                    </g>
                </g>
                <g transform="matrix(1.50064,0,0,1.44091,1168.34,-1046.11)">
                    <path d="M1238.77,805.485C1224,783.959 1249.11,851.563 1227.62,896.526C1202.84,948.374 1200.68,964.702 1177.9,994.045C1168.39,1006.3 1167.15,1010.93 1204.95,1025.68C1234.78,1037.33 1312.77,1074.65 1316.24,1025.68C1319.71,976.719 1253.54,827.012 1238.77,805.485Z" style="fill:rgb(226,87,12);"/>
                    <clipPath id="_clip4">
                        <path d="M1238.77,805.485C1224,783.959 1249.11,851.563 1227.62,896.526C1202.84,948.374 1200.68,964.702 1177.9,994.045C1168.39,1006.3 1167.15,1010.93 1204.95,1025.68C1234.78,1037.33 1312.77,1074.65 1316.24,1025.68C1319.71,976.719 1253.54,827.012 1238.77,805.485Z"/>
                    </clipPath>
                    <g clip-path="url(#_clip4)">
                        <g transform="matrix(1,0,0,1,-9.72719,-34.2881)">
                            <path d="M1254.05,821.796C1254.05,821.796 1226.04,813.981 1254.05,858.698C1282.06,903.415 1272.15,961.674 1272.15,961.674C1272.15,961.674 1254.48,1104.75 1182,1072.54C1109.53,1040.33 1072.74,1066.26 1072.74,1066.26C1072.74,1066.26 951.036,1288.38 1217,1187.88C1482.96,1087.39 1477.69,987.337 1477.69,987.337L1254.05,821.796" style="fill:rgb(172,66,9);"/>
                        </g>
                    </g>
                </g>
                <g transform="matrix(1,0,0,1,1751.07,-646.55)">
                    <path d="M970.77,787.071L972.931,793.813L977.096,791.73L976.428,796.389L983.423,796.389L977.764,800.556L981.006,803.927L976.428,804.723L978.59,811.466L972.931,807.299L970.77,811.466L968.608,807.299L962.949,811.466L965.111,804.723L960.533,803.927L963.775,800.556L958.116,796.389L965.111,796.389L964.443,791.73L968.608,793.813L970.77,787.071Z" style="fill:rgb(226,87,12);"/>
                </g>
                <g transform="matrix(0.556636,0,0,0.602635,2603.38,-275.661)">
                    <path d="M970.77,787.071L972.931,793.813L977.096,791.73L976.428,796.389L983.423,796.389L977.764,800.556L981.006,803.927L976.428,804.723L978.59,811.466L972.931,807.299L970.77,811.466L968.608,807.299L962.949,811.466L965.111,804.723L960.533,803.927L963.775,800.556L958.116,796.389L965.111,796.389L964.443,791.73L968.608,793.813L970.77,787.071Z" style="fill:rgb(226,87,12);"/>
                </g>
                <g transform="matrix(0.556636,0,0,0.602635,2454.59,-328.948)">
                    <path d="M970.77,787.071L972.931,793.813L977.096,791.73L976.428,796.389L983.423,796.389L977.764,800.556L981.006,803.927L976.428,804.723L978.59,811.466L972.931,807.299L970.77,811.466L968.608,807.299L962.949,811.466L965.111,804.723L960.533,803.927L963.775,800.556L958.116,796.389L965.111,796.389L964.443,791.73L968.608,793.813L970.77,787.071Z" style="fill:rgb(226,87,12);"/>
                </g>
                <g transform="matrix(0.556636,0,0,0.602635,2564.98,-153.861)">
                    <path d="M970.77,787.071L972.931,793.813L977.096,791.73L976.428,796.389L983.423,796.389L977.764,800.556L981.006,803.927L976.428,804.723L978.59,811.466L972.931,807.299L970.77,811.466L968.608,807.299L962.949,811.466L965.111,804.723L960.533,803.927L963.775,800.556L958.116,796.389L965.111,796.389L964.443,791.73L968.608,793.813L970.77,787.071Z" style="fill:rgb(229,242,13);"/>
                </g>
                <g transform="matrix(0.556636,0,0,0.602635,2257.15,-212.066)">
                    <path d="M970.77,787.071L972.931,793.813L977.096,791.73L976.428,796.389L983.423,796.389L977.764,800.556L981.006,803.927L976.428,804.723L978.59,811.466L972.931,807.299L970.77,811.466L968.608,807.299L962.949,811.466L965.111,804.723L960.533,803.927L963.775,800.556L958.116,796.389L965.111,796.389L964.443,791.73L968.608,793.813L970.77,787.071Z" style="fill:rgb(229,242,13);"/>
                </g>
            </g>
            <g id="g3">
<animate attributeName="opacity" values="0;0;1;0;0" repeatCount="indefinite" dur="10s" />
                <g transform="matrix(1.50064,0,0,1.44091,-1364.09,-49.8688)">
                    <g transform="matrix(1,0,0,1,1687.57,-691.395)">
                        <path d="M1122.85,907.906C1122.85,907.906 1190.35,866.558 1190.03,836.365C1189.7,806.171 1215.93,856.716 1223.91,869.035C1231.88,881.354 1257.38,959.4 1257.38,959.4C1257.38,959.4 1276.32,959.59 1239.85,990.786C1191.17,1032.42 1145.14,1007.94 1129.65,975.057C1114.84,943.62 1122.85,907.906 1122.85,907.906Z" style="fill:white;stroke:rgb(242,94,13);stroke-width:4px;"/>
                    </g>
                    <g transform="matrix(0.690583,0,0,0.669981,2056.24,-387.833)">
                        <path d="M1122.85,907.906C1122.85,907.906 1190.35,866.558 1190.03,836.365C1189.7,806.171 1215.93,856.716 1223.91,869.035C1231.88,881.354 1257.38,959.4 1257.38,959.4C1257.38,959.4 1276.32,959.59 1239.85,990.786C1191.17,1032.42 1145.14,1007.94 1129.65,975.057C1114.84,943.62 1122.85,907.906 1122.85,907.906Z" style="fill:rgb(91,112,253);"/>
                    </g>
                </g>
                <g transform="matrix(1.50064,0,0,1.44091,1168.34,-1046.11)">
                    <path d="M1118.71,816.721C1124.44,795.641 1061.19,857.551 1056.96,920.274C1052.73,982.996 1056.36,980.555 1061.25,986.699C1064.07,990.246 1079.19,996.913 1099.13,999.553C1113.74,1001.49 1174.16,1015.41 1191.49,1014.64C1218.91,1013.44 1222.31,956.718 1208.85,939.748C1195.4,922.778 1108.87,852.886 1118.71,816.721Z" style="fill:rgb(242,94,13);"/>
                    <clipPath id="_clip5">
                        <path d="M1118.71,816.721C1124.44,795.641 1061.19,857.551 1056.96,920.274C1052.73,982.996 1056.36,980.555 1061.25,986.699C1064.07,990.246 1079.19,996.913 1099.13,999.553C1113.74,1001.49 1174.16,1015.41 1191.49,1014.64C1218.91,1013.44 1222.31,956.718 1208.85,939.748C1195.4,922.778 1108.87,852.886 1118.71,816.721Z"/>
                    </clipPath>
                    <g clip-path="url(#_clip5)">
                        <g transform="matrix(1,0,0,1,-9.72719,-34.2881)">
                            <path d="M1033.9,975.366C1047.66,958.429 1078.25,959.266 1102.88,982.936C1122.23,1001.52 1157.86,1032.38 1137.34,1063.83C1116.83,1095.28 1020.34,1084.56 1020.34,1084.56C1020.34,1084.56 1020.14,992.303 1033.9,975.366Z" style="fill:rgb(172,66,9);"/>
                        </g>
                        <g transform="matrix(1,0,0,1,-9.72719,-34.2881)">
                            <path d="M1136,843.073C1136.52,842.47 1134.37,843.393 1133.74,843.892C1131.71,845.503 1129.75,847.25 1128.17,849.3C1126.63,851.302 1125.37,853.555 1124.48,855.919C1119.93,867.948 1121.94,881.159 1124.26,893.374C1128.12,913.775 1137.41,935.169 1156.07,946.205C1165.55,951.811 1175.79,956.03 1185.65,960.927C1194.14,965.142 1202.65,969.321 1211.15,973.54C1211.93,973.929 1215.65,976.449 1216.89,974.828C1218.37,972.88 1204.26,958.7 1199.34,953.854C1175.06,929.924 1155.25,901.279 1142.14,869.773C1139.62,863.734 1137.81,857.424 1135.86,851.18C1135.25,849.215 1134.32,844.999 1136,843.073Z" style="fill:rgb(229,242,13);"/>
                        </g>
                    </g>
                </g>
                <g transform="matrix(1.50064,0,0,1.44091,1168.34,-1046.11)">
                    <path d="M1244.41,804.5C1229.64,782.974 1249.11,851.563 1227.62,896.526C1202.84,948.374 1200.68,964.702 1177.9,994.045C1168.39,1006.3 1167.15,1010.93 1204.95,1025.68C1234.78,1037.33 1312.77,1074.65 1316.24,1025.68C1319.71,976.719 1259.18,826.026 1244.41,804.5Z" style="fill:rgb(226,87,12);"/>
                    <clipPath id="_clip6">
                        <path d="M1244.41,804.5C1229.64,782.974 1249.11,851.563 1227.62,896.526C1202.84,948.374 1200.68,964.702 1177.9,994.045C1168.39,1006.3 1167.15,1010.93 1204.95,1025.68C1234.78,1037.33 1312.77,1074.65 1316.24,1025.68C1319.71,976.719 1259.18,826.026 1244.41,804.5Z"/>
                    </clipPath>
                    <g clip-path="url(#_clip6)">
                        <g transform="matrix(1,0,0,1,-9.72719,-34.2881)">
                            <path d="M1254.05,821.796C1254.05,821.796 1233.31,814.365 1261.33,859.082C1289.34,903.799 1272.15,961.674 1272.15,961.674C1272.15,961.674 1254.48,1104.75 1182,1072.54C1109.53,1040.33 1072.74,1066.26 1072.74,1066.26C1072.74,1066.26 951.036,1288.38 1217,1187.88C1482.96,1087.39 1477.69,987.337 1477.69,987.337L1254.05,821.796" style="fill:rgb(172,66,9);"/>
                        </g>
                    </g>
                </g>
                <g transform="matrix(1,0,0,1,1763.72,-637.497)">
                    <path d="M970.77,787.071L972.931,793.813L977.096,791.73L976.428,796.389L983.423,796.389L977.764,800.556L981.006,803.927L976.428,804.723L978.59,811.466L972.931,807.299L970.77,811.466L968.608,807.299L962.949,811.466L965.111,804.723L960.533,803.927L963.775,800.556L958.116,796.389L965.111,796.389L964.443,791.73L968.608,793.813L970.77,787.071Z" style="fill:rgb(226,87,12);"/>
                </g>
                <g transform="matrix(0.556636,0,0,0.602635,2596.35,-276.301)">
                    <path d="M970.77,787.071L972.931,793.813L977.096,791.73L976.428,796.389L983.423,796.389L977.764,800.556L981.006,803.927L976.428,804.723L978.59,811.466L972.931,807.299L970.77,811.466L968.608,807.299L962.949,811.466L965.111,804.723L960.533,803.927L963.775,800.556L958.116,796.389L965.111,796.389L964.443,791.73L968.608,793.813L970.77,787.071Z" style="fill:rgb(226,87,12);"/>
                </g>
                <g transform="matrix(0.556636,0,0,0.602635,2454.16,-332.523)">
                    <path d="M970.77,787.071L972.931,793.813L977.096,791.73L976.428,796.389L983.423,796.389L977.764,800.556L981.006,803.927L976.428,804.723L978.59,811.466L972.931,807.299L970.77,811.466L968.608,807.299L962.949,811.466L965.111,804.723L960.533,803.927L963.775,800.556L958.116,796.389L965.111,796.389L964.443,791.73L968.608,793.813L970.77,787.071Z" style="fill:rgb(226,87,12);"/>
                </g>
                <g transform="matrix(0.556636,0,0,0.602635,2564.13,-145.465)">
                    <path d="M970.77,787.071L972.931,793.813L977.096,791.73L976.428,796.389L983.423,796.389L977.764,800.556L981.006,803.927L976.428,804.723L978.59,811.466L972.931,807.299L970.77,811.466L968.608,807.299L962.949,811.466L965.111,804.723L960.533,803.927L963.775,800.556L958.116,796.389L965.111,796.389L964.443,791.73L968.608,793.813L970.77,787.071Z" style="fill:rgb(229,242,13);"/>
                </g>
                <g transform="matrix(0.556636,0,0,0.602635,2261.49,-204.014)">
                    <path d="M970.77,787.071L972.931,793.813L977.096,791.73L976.428,796.389L983.423,796.389L977.764,800.556L981.006,803.927L976.428,804.723L978.59,811.466L972.931,807.299L970.77,811.466L968.608,807.299L962.949,811.466L965.111,804.723L960.533,803.927L963.775,800.556L958.116,796.389L965.111,796.389L964.443,791.73L968.608,793.813L970.77,787.071Z" style="fill:rgb(229,242,13);"/>
                </g>
            </g>
            <g id="twigs">
                <g transform="matrix(1.50064,0,0,1.44091,1282.32,-1117.41)">
                    <path d="M970.941,1040.88L1063.75,1057.54" style="fill:none;stroke:rgb(179,112,77);stroke-width:4px;"/>
                </g>
                <g transform="matrix(1.50064,0,0,1.44091,1262.25,-1124.17)">
                    <path d="M986.046,1050.27L1011.51,1040.88" style="fill:none;stroke:rgb(179,112,77);stroke-width:4px;"/>
                </g>
                <g transform="matrix(1.50064,0,0,1.44091,1210.85,-1134.65)">
                    <path d="M1033.03,1074.33L1117.36,1057.54" style="fill:none;stroke:rgb(179,112,77);stroke-width:4px;"/>
                </g>
                <g transform="matrix(1.50064,0,0,1.44091,1262.25,-1087.33)">
                    <path d="M1049.42,1025.68L1106.07,1040.88" style="fill:none;stroke:rgb(179,112,77);stroke-width:4px;"/>
                </g>
                <g transform="matrix(1.50064,0,0,1.44091,1225.91,-1134.7)">
                    <path d="M998.781,1065.94L1084.98,1049.21" style="fill:none;stroke:rgb(179,112,77);stroke-width:4px;"/>
                </g>
                <g transform="matrix(1.50064,0,0,1.44091,1262.25,-1087.33)">
                    <path d="M1049.42,1033.28L1106.07,1033.28" style="fill:none;stroke:rgb(179,112,77);stroke-width:4px;"/>
                </g>
                <g transform="matrix(1.50064,0,0,1.44091,1383.88,-1060.59)">
                    <path d="M1049.42,1033.28L1106.07,1033.28" style="fill:none;stroke:rgb(179,112,77);stroke-width:4px;"/>
                </g>
                <g transform="matrix(1.50064,0,0,1.44091,1207.13,-1129.41)">
                    <path d="M1097.49,1085.77L1149.59,1057.54" style="fill:none;stroke:rgb(179,112,77);stroke-width:4px;"/>
                </g>
                <g transform="matrix(1.50064,0,0,1.44091,1328.77,-1102.68)">
                    <path d="M1097.49,1085.77L1149.59,1057.54" style="fill:none;stroke:rgb(179,112,77);stroke-width:4px;"/>
                </g>
                <g transform="matrix(1.50064,0,0,1.44091,1262.25,-1087.33)">
                    <path d="M1106.07,1045.57L1166.94,1057.54" style="fill:none;stroke:rgb(179,112,77);stroke-width:4px;"/>
                </g>
                <g transform="matrix(1.50064,0,0,1.44091,1383.88,-1060.59)">
                    <path d="M1106.07,1045.57L1166.94,1057.54" style="fill:none;stroke:rgb(179,112,77);stroke-width:4px;"/>
                </g>
                <g transform="matrix(1.50064,0,0,1.44091,1187.36,-1110.64)">
                    <path d="M1136.51,1085.77L1189.03,1040.88" style="fill:none;stroke:rgb(179,112,77);stroke-width:4px;"/>
                </g>
                <g transform="matrix(1.50064,0,0,1.44091,1309,-1083.91)">
                    <path d="M1136.51,1085.77L1189.03,1040.88" style="fill:none;stroke:rgb(179,112,77);stroke-width:4px;"/>
                </g>
                <g transform="matrix(1.50064,0,0,1.44091,1187.37,-1086.19)">
                    <path d="M1198.96,1071.65L1230.28,1065.94" style="fill:none;stroke:rgb(179,112,77);stroke-width:4px;"/>
                </g>
                <g transform="matrix(1.50064,0,0,1.44091,1309.01,-1059.46)">
                    <path d="M1198.96,1071.65L1230.28,1065.94" style="fill:none;stroke:rgb(179,112,77);stroke-width:4px;"/>
                </g>
                <g transform="matrix(1.12428,0.954377,-0.993938,1.07953,2656.3,-1863.71)">
                    <path d="M1204.03,1085.77L1221.34,1049.21" style="fill:none;stroke:rgb(179,112,77);stroke-width:4px;"/>
                </g>
                <g transform="matrix(1.12428,0.954377,-0.993938,1.07953,2777.93,-1836.98)">
                    <path d="M1204.03,1085.77L1221.34,1049.21" style="fill:none;stroke:rgb(179,112,77);stroke-width:4px;"/>
                </g>
                <g transform="matrix(1.50064,0,0,1.44091,1172.24,-1100.84)">
                    <path d="M1172.85,1065.94L1247.05,1091.82" style="fill:none;stroke:rgb(179,112,77);stroke-width:4px;"/>
                </g>
                <g transform="matrix(1.50064,0,0,1.44091,1293.87,-1074.11)">
                    <path d="M1172.85,1065.94L1247.05,1091.82" style="fill:none;stroke:rgb(179,112,77);stroke-width:4px;"/>
                </g>
                <g transform="matrix(1.49046,-0.174432,0.167489,1.43114,1088.45,-905.969)">
                    <path d="M970.941,1040.88L1063.75,1057.54" style="fill:none;stroke:rgb(179,112,77);stroke-width:4px;"/>
                </g>
                <g transform="matrix(1.49046,-0.174432,0.167489,1.43114,1067.72,-910.357)">
                    <path d="M986.046,1050.27L1011.51,1040.88" style="fill:none;stroke:rgb(179,112,77);stroke-width:4px;"/>
                </g>
                <g transform="matrix(1.49046,-0.174432,0.167489,1.43114,1015.46,-914.793)">
                    <path d="M1033.03,1074.33L1117.36,1057.54" style="fill:none;stroke:rgb(179,112,77);stroke-width:4px;"/>
                </g>
                <g transform="matrix(1.49046,-0.174432,0.167489,1.43114,1072.01,-873.761)">
                    <path d="M1049.42,1025.68L1106.07,1040.88" style="fill:none;stroke:rgb(179,112,77);stroke-width:4px;"/>
                </g>
                <g transform="matrix(1.49046,-0.174432,0.167489,1.43114,1030.41,-916.587)">
                    <path d="M998.781,1065.94L1084.98,1049.21" style="fill:none;stroke:rgb(179,112,77);stroke-width:4px;"/>
                </g>
                <g transform="matrix(1.49046,-0.174432,0.167489,1.43114,1072.01,-873.761)">
                    <path d="M1049.42,1033.28L1106.07,1033.28" style="fill:none;stroke:rgb(179,112,77);stroke-width:4px;"/>
                </g>
                <g transform="matrix(1.49046,-0.174432,0.167489,1.43114,1195.92,-861.349)">
                    <path d="M1049.42,1033.28L1106.07,1033.28" style="fill:none;stroke:rgb(179,112,77);stroke-width:4px;"/>
                </g>
                <g transform="matrix(1.49046,-0.174432,0.167489,1.43114,1012.37,-909.156)">
                    <path d="M1097.49,1085.77L1149.59,1057.54" style="fill:none;stroke:rgb(179,112,77);stroke-width:4px;"/>
                </g>
                <g transform="matrix(1.49046,-0.174432,0.167489,1.43114,1136.29,-896.744)">
                    <path d="M1097.49,1085.77L1149.59,1057.54" style="fill:none;stroke:rgb(179,112,77);stroke-width:4px;"/>
                </g>
                <g transform="matrix(1.49046,-0.174432,0.167489,1.43114,1072.01,-873.761)">
                    <path d="M1106.07,1045.57L1166.94,1057.54" style="fill:none;stroke:rgb(179,112,77);stroke-width:4px;"/>
                </g>
                <g transform="matrix(1.49046,-0.174432,0.167489,1.43114,1195.92,-861.349)">
                    <path d="M1106.07,1045.57L1166.94,1057.54" style="fill:none;stroke:rgb(179,112,77);stroke-width:4px;"/>
                </g>
                <g transform="matrix(1.49046,-0.174432,0.167489,1.43114,994.923,-888.211)">
                    <path d="M1136.51,1085.77L1189.03,1040.88" style="fill:none;stroke:rgb(179,112,77);stroke-width:4px;"/>
                </g>
                <g transform="matrix(1.49046,-0.174432,0.167489,1.43114,1118.84,-875.799)">
                    <path d="M1136.51,1085.77L1189.03,1040.88" style="fill:none;stroke:rgb(179,112,77);stroke-width:4px;"/>
                </g>
                <g transform="matrix(1.49046,-0.174432,0.167489,1.43114,997.772,-863.926)">
                    <path d="M1198.96,1071.65L1230.28,1065.94" style="fill:none;stroke:rgb(179,112,77);stroke-width:4px;"/>
                </g>
                <g transform="matrix(1.49046,-0.174432,0.167489,1.43114,1121.69,-851.514)">
                    <path d="M1198.96,1071.65L1230.28,1065.94" style="fill:none;stroke:rgb(179,112,77);stroke-width:4px;"/>
                </g>
                <g transform="matrix(1.22759,0.817223,-0.861718,1.18774,2366.37,-1806.93)">
                    <path d="M1204.03,1085.77L1221.34,1049.21" style="fill:none;stroke:rgb(179,112,77);stroke-width:4px;"/>
                </g>
                <g transform="matrix(1.22759,0.817223,-0.861718,1.18774,2490.28,-1794.52)">
                    <path d="M1204.03,1085.77L1221.34,1049.21" style="fill:none;stroke:rgb(179,112,77);stroke-width:4px;"/>
                </g>
                <g transform="matrix(1.49046,-0.174432,0.167489,1.43114,981.038,-876.724)">
                    <path d="M1172.85,1065.94L1247.05,1091.82" style="fill:none;stroke:rgb(179,112,77);stroke-width:4px;"/>
                </g>
                <g transform="matrix(1.49046,-0.174432,0.167489,1.43114,1104.96,-864.312)">
                    <path d="M1172.85,1065.94L1247.05,1091.82" style="fill:none;stroke:rgb(179,112,77);stroke-width:4px;"/>
                </g>
            </g>
        </g>
    </g>
</svg>
